<?xml version="1.0" encoding="UTF-8"?>
<svg version="1.1" xmlns="http://www.w3.org/2000/svg" width="500" height="500">
<path d="M0 0 C165 0 330 0 500 0 C500 165 500 330 500 500 C335 500 170 500 0 500 C0 335 0 170 0 0 Z " fill="#FEFEFE" transform="translate(0,0)"/>
<path d="M0 0 C1.56695248 -0.00019255 3.13428867 0.04386359 4.69925499 0.12273407 C5.99332099 0.13879715 5.99332099 0.13879715 7.31352973 0.15518475 C10.19649092 0.19922032 13.07485897 0.29933886 15.95642662 0.39800262 C18.01912628 0.43831834 20.08191427 0.47431495 22.14476013 0.50628662 C26.53743125 0.57812438 30.92910021 0.66946724 35.32111931 0.77364349 C45.25322117 0.99487338 55.18572605 0.98508298 65.11983562 0.99732685 C70.9179861 1.00783532 76.71604487 1.03662112 82.51413536 1.06414032 C84.91833415 1.07508937 87.32253311 1.085999 89.72673225 1.09687042 C90.93647949 1.10239237 92.14622672 1.10791431 93.39263296 1.11360359 C99.74386049 1.142371 106.09509317 1.16995657 112.4463253 1.19768524 C123.04653779 1.24411576 133.64674705 1.29123479 144.24695396 1.33892059 C155.1366003 1.38790647 166.02624846 1.43644904 176.91589928 1.48442841 C177.93276532 1.4889089 177.93276532 1.4889089 178.97017412 1.49347991 C182.37304536 1.50847094 185.77591665 1.52345361 189.17878795 1.53843212 C217.14682827 1.66155055 245.11486194 1.78612923 273.08289146 1.9116745 C271.78799943 5.90857802 270.38311896 9.46054324 268.31726646 13.122612 C267.76417809 14.10761688 267.21108971 15.09262177 266.64124107 16.10747528 C265.74610802 17.68117889 265.74610802 17.68117889 264.83289146 19.2866745 C263.90005333 20.93965546 263.90005333 20.93965546 262.94836998 22.62602997 C258.12805003 31.14061401 253.20994958 39.59680922 248.26111412 48.03716278 C243.80287723 55.64808991 239.43904112 63.30824885 235.11340904 70.99517059 C231.18257296 77.97767785 227.21090113 84.93608044 223.22507286 91.88729095 C216.9067103 102.90911911 210.68333483 113.97837523 204.53015709 125.09355927 C198.90784956 135.24635559 193.20028787 145.34950746 187.47742271 155.44585419 C185.89096103 158.25104729 184.3158012 161.06240472 182.74304771 163.87529755 C180.86669274 167.22662684 178.97482554 170.56912288 177.08289146 173.9116745 C176.49121178 174.95984344 175.89953209 176.00801239 175.28992271 177.08794403 C173.61074624 180.05992458 171.92288551 183.0268591 170.23053551 185.9913559 C169.55267138 187.18139078 168.87722511 188.37280641 168.20429039 189.56563568 C167.25639539 191.24464028 166.29872723 192.91811582 165.34070396 194.591362 C164.78527916 195.56831024 164.22985435 196.54525848 163.6575985 197.55181122 C162.08289146 199.9116745 162.08289146 199.9116745 159.08289146 201.9116745 C156.62102032 202.17338753 156.62102032 202.17338753 153.63496971 202.1901474 C152.50334908 202.20131088 151.37172844 202.21247437 150.20581627 202.22397614 C148.34249657 202.22721642 148.34249657 202.22721642 146.44153404 202.23052216 C145.13411751 202.24056778 143.82670097 202.2506134 142.47966576 202.26096344 C138.89319343 202.28829622 135.30676044 202.30342248 131.72021127 202.31639147 C127.97254366 202.33200772 124.22495659 202.35880271 120.47734642 202.3844223 C113.38011673 202.43123683 106.28287194 202.46796796 99.1855666 202.50109518 C91.10579454 202.53929771 83.0261033 202.58871274 74.94639933 202.63907933 C58.32528806 202.74243894 41.70413198 202.83168619 25.08289146 202.9116745 C25.56345717 203.66566402 26.04402288 204.41965355 26.53915119 205.19649124 C27.48481119 206.68114569 27.48481119 206.68114569 28.44957542 208.19579315 C29.07451613 209.17665768 29.69945684 210.1575222 30.34333515 211.16810989 C32.2615497 214.19344774 34.13840559 217.23764289 35.99304771 220.3022995 C36.66585777 221.41250458 37.33866783 222.52270966 38.03186607 223.66655731 C38.37651909 224.23652435 38.7211721 224.80649139 39.07626915 225.39373016 C40.1769797 227.21391009 41.27927076 229.03312463 42.38196373 230.85210419 C43.89112607 233.34173793 45.39983542 235.83164502 46.90808678 238.32183075 C54.71346017 251.20738471 62.52608182 264.08563423 70.53601646 276.84526825 C73.50916843 281.58417093 76.45238886 286.341509 79.39539146 291.0991745 C79.9411483 291.98129608 80.48690514 292.86341766 81.04920006 293.7722702 C83.28971271 297.39431198 85.52954604 301.01677365 87.7694149 304.63921356 C88.88610039 306.44498678 90.00296119 308.2506516 91.12000084 310.05620575 C92.21038789 311.81889062 93.30024168 313.58190548 94.38953209 315.34526825 C96.94733741 319.48169452 99.5177261 323.60897721 102.12195396 327.716362 C102.59157555 328.4591037 103.06119713 329.2018454 103.54504967 329.96709442 C104.42251284 331.35253754 105.30366111 332.73565602 106.18909264 334.1160202 C109.08289146 338.68961915 109.08289146 338.68961915 109.08289146 340.9116745 C8.43289146 340.9116745 -92.21710854 340.9116745 -195.91710854 340.9116745 C-192.54584944 330.7978972 -192.54584944 330.7978972 -190.30773354 327.169487 C-189.80789955 326.34456757 -189.30806557 325.51964813 -188.7930851 324.66973114 C-188.25651283 323.80082245 -187.71994057 322.93191376 -187.16710854 322.0366745 C-181.97374169 313.45043635 -177.00374999 304.76415436 -172.16710854 295.9741745 C-167.98807432 288.39188635 -163.77322514 280.85491307 -159.25670815 273.46831512 C-155.95368733 268.04154141 -152.8414215 262.51232631 -149.72960854 256.9741745 C-145.22081973 248.94989091 -140.63851215 240.97471699 -135.97960854 233.0366745 C-130.58716541 223.84237576 -125.34511486 214.57302087 -120.16295815 205.25884247 C-116.21062981 198.17293348 -112.15726712 191.15407005 -108.04210854 184.1616745 C-102.54143812 174.80389259 -97.25255466 165.34159559 -92.0349369 155.82457733 C-87.01891137 146.67835858 -81.91956478 137.58534415 -76.72960854 128.5366745 C-76.22862648 127.66303757 -76.22862648 127.66303757 -75.71752357 126.7717514 C-74.07330621 123.90494027 -72.42859362 121.03841341 -70.78380775 118.17192841 C-67.93640568 113.19884348 -65.11108392 108.21341609 -62.29210854 103.2241745 C-61.76907143 102.29870819 -61.24603432 101.37324188 -60.7071476 100.41973114 C-57.9554852 95.54406036 -55.21694382 90.66132963 -52.49132729 85.7710495 C-46.10096038 74.30957124 -39.61432704 62.91789958 -32.96959877 51.60186005 C-28.29551564 43.61848117 -23.81674783 35.53960748 -19.38585854 27.419487 C-17.14286615 23.31139768 -14.8610465 19.22734495 -12.54210854 15.1616745 C-11.66425697 13.62253387 -11.66425697 13.62253387 -10.76867104 12.0522995 C-10.15765541 11.01589325 -9.54663979 9.979487 -8.91710854 8.9116745 C-8.59646482 8.24211589 -8.27582111 7.57255729 -7.94546092 6.88270903 C-5.92432871 3.01062818 -4.56729406 0.45759972 0 0 Z " fill="#76C234" transform="translate(210.9171085357666,79.08832550048828)"/>
<path d="M0 0 C1.54077148 1.94042969 1.54077148 1.94042969 3.18359375 4.671875 C3.79831543 5.68056641 4.41303711 6.68925781 5.04638672 7.72851562 C5.6910791 8.80810547 6.33577148 9.88769531 7 11 C8.30305182 13.13041241 9.60644419 15.26061656 10.91015625 17.390625 C11.93845844 19.08742827 12.9667323 20.78424944 13.99337769 22.48205566 C15.09408823 24.30223559 16.1963793 26.12145013 17.29907227 27.94042969 C18.80823461 30.43006343 20.31694395 32.91997052 21.82519531 35.41015625 C29.63056871 48.29571021 37.44319035 61.17395973 45.453125 73.93359375 C48.42627697 78.67249643 51.3694974 83.4298345 54.3125 88.1875 C54.85825684 89.06962158 55.40401367 89.95174316 55.96630859 90.8605957 C58.20682125 94.48263748 60.44665457 98.10509915 62.68652344 101.72753906 C63.80320892 103.53331228 64.92006972 105.3389771 66.03710938 107.14453125 C67.12749643 108.90721612 68.21735021 110.67023098 69.30664062 112.43359375 C71.86444594 116.57002002 74.43483464 120.69730271 77.0390625 124.8046875 C77.50868408 125.5474292 77.97830566 126.2901709 78.4621582 127.05541992 C79.33962138 128.44086304 80.22076965 129.82398152 81.10620117 131.2043457 C84 135.77794465 84 135.77794465 84 138 C-16.65 138 -117.3 138 -221 138 C-220 135 -220 135 -218.41210938 133.91601562 C-217.72955078 133.58279297 -217.04699219 133.24957031 -216.34375 132.90625 C-215.57708008 132.52138428 -214.81041016 132.13651855 -214.02050781 131.73999023 C-213.18874023 131.33079346 -212.35697266 130.92159668 -211.5 130.5 C-203.32621351 126.34763636 -195.68718689 121.71415225 -188.05078125 116.65625 C-184.24376165 114.13699222 -180.36434329 111.76440359 -176.4375 109.4375 C-161.98225467 100.85048853 -147.84783341 91.74336922 -133.6730957 82.70385742 C-130.93679615 80.95971325 -128.19898999 79.2179533 -125.4609375 77.4765625 C-121.9160043 75.22189574 -118.37607968 72.95968535 -114.83984375 70.69140625 C-113.20582938 69.6482805 -111.57171576 68.60531021 -109.9375 67.5625 C-109.09767578 67.02173828 -108.25785156 66.48097656 -107.39257812 65.92382812 C-106.59142578 65.41400391 -105.79027344 64.90417969 -104.96484375 64.37890625 C-104.2493335 63.9207251 -103.53382324 63.46254395 -102.79663086 62.99047852 C-101 62 -101 62 -99 62 C-99 61.34 -99 60.68 -99 60 C-97.11628996 58.67032232 -95.16404069 57.437305 -93.1875 56.25 C-92.59727051 55.89365479 -92.00704102 55.53730957 -91.39892578 55.17016602 C-86.90160271 52.47672757 -82.3120638 49.97511205 -77.69140625 47.5 C-72.99295157 44.88141278 -68.50907965 41.92885839 -64 39 C-62.48219487 38.01614586 -60.96168659 37.03643872 -59.4375 36.0625 C-58.81746094 35.66160156 -58.19742188 35.26070313 -57.55859375 34.84765625 C-56 34 -56 34 -54 34 C-54 33.34 -54 32.68 -54 32 C-52.55395508 30.90600586 -52.55395508 30.90600586 -50.51953125 29.71484375 C-49.77413086 29.27124512 -49.02873047 28.82764648 -48.26074219 28.37060547 C-47.45282227 27.89768066 -46.64490234 27.42475586 -45.8125 26.9375 C-39.07533063 22.91394942 -32.5829457 18.72369177 -26.16796875 14.203125 C-22.67514793 11.77408561 -19.1360947 9.43282859 -15.5625 7.125 C-14.71123535 6.57078369 -14.71123535 6.57078369 -13.84277344 6.00537109 C-4.48756154 0 -4.48756154 0 0 0 Z " fill="#22C563" transform="translate(236,282)"/>
<path d="M0 0 C0.82611715 0.00446483 1.6522343 0.00892965 2.50338531 0.01352978 C3.80594099 0.01473591 3.80594099 0.01473591 5.13481092 0.01596642 C8.056966 0.0199996 10.97904685 0.03133304 13.90118194 0.04270458 C15.98218814 0.0472761 18.06319523 0.05146168 20.14420295 0.05528545 C25.72253409 0.06709703 31.30082188 0.08564205 36.87912631 0.10638332 C40.19655221 0.11857835 43.51397983 0.12959189 46.83141112 0.14020824 C61.75012544 0.18861378 76.6687525 0.25270876 91.58738828 0.32080555 C97.93861581 0.34957296 104.28984848 0.37715853 110.64108062 0.4048872 C121.24129311 0.45131772 131.84150237 0.49843675 142.44170928 0.54612255 C153.33135561 0.59510843 164.22100378 0.643651 175.11065459 0.69163036 C176.12752064 0.69611086 176.12752064 0.69611086 177.16492943 0.70068187 C180.56780068 0.7156729 183.97067196 0.73065556 187.37354326 0.74563408 C215.34158358 0.86875251 243.30961726 0.99333119 271.27764678 1.11887646 C269.98275475 5.11577998 268.57787427 8.6677452 266.51202178 12.32981396 C265.9589334 13.31481884 265.40584502 14.29982372 264.83599639 15.31467724 C263.94086333 16.88838085 263.94086333 16.88838085 263.02764678 18.49387646 C262.09480865 20.14685741 262.09480865 20.14685741 261.1431253 21.83323193 C256.32280534 30.34781597 251.40470489 38.80401118 246.45586944 47.24436474 C241.99763254 54.85529186 237.63379644 62.51545081 233.30816436 70.20237255 C229.37732828 77.18487981 225.40565644 84.1432824 221.41982818 91.09449291 C215.10146562 102.11632107 208.87809015 113.18557719 202.72491241 124.30076122 C197.10260488 134.45355755 191.39504318 144.55670942 185.67217803 154.65305614 C184.08558856 157.45847519 182.51047039 160.27015947 180.93707061 163.08298779 C174.17512477 175.16575671 167.21219421 187.13466155 160.27764678 199.11887646 C159.28764678 199.11887646 158.29764678 199.11887646 157.27764678 199.11887646 C156.94764678 153.57887646 156.61764678 108.03887646 156.27764678 61.11887646 C151.65764678 59.79887646 147.03764678 58.47887646 142.27764678 57.11887646 C141.94764678 56.78887646 141.61764678 56.45887646 141.27764678 56.11887646 C139.023493 55.83598465 136.76924022 55.67116455 134.50420928 55.49778271 C132.27764678 55.11887646 132.27764678 55.11887646 129.27764678 53.11887646 C127.32547688 52.89847018 125.37141281 52.67947792 123.41045928 52.56028271 C121.27764678 52.11887646 121.27764678 52.11887646 119.20733428 50.82200146 C114.81347197 48.26770284 110.09607641 46.87814128 105.27764678 45.30637646 C104.22343535 44.95816845 103.16922393 44.60996044 102.0830667 44.25120068 C94.09916164 41.64267493 86.06489475 39.2506551 77.96709991 37.02195263 C73.95699608 35.91517995 70.12289172 34.72396963 66.27764678 33.11887646 C62.92326445 32.2243745 59.59514967 31.36713726 56.18389678 30.72434521 C50.50507928 29.62355993 45.49233666 27.63212716 40.18389678 25.35325146 C33.1913656 22.38330542 26.5432835 20.73316224 19.03155303 19.59153271 C15.98222777 19.06817334 13.16070821 18.24006701 10.27764678 17.11887646 C10.27764678 16.45887646 10.27764678 15.79887646 10.27764678 15.11887646 C9.57252959 14.98610302 8.86741241 14.85332958 8.14092803 14.71653271 C5.21038379 14.10483657 2.34981068 13.35574115 -0.53485322 12.55637646 C-1.51067353 12.28696239 -2.48649384 12.01754833 -3.49188447 11.73997021 C-4.22793916 11.53500927 -4.96399384 11.33004833 -5.72235322 11.11887646 C-5.72235322 10.45887646 -5.72235322 9.79887646 -5.72235322 9.11887646 C-7.70235322 9.77887646 -9.68235322 10.43887646 -11.72235322 11.11887646 C-10.91228796 9.4718434 -10.09923112 7.82628139 -9.28485322 6.18137646 C-8.83239228 5.26485302 -8.37993134 4.34832958 -7.91375947 3.40403271 C-5.83860007 -0.57619105 -4.37938968 0.00364349 0 0 Z " fill="#7ED857" transform="translate(212.72235321998596,79.88112354278564)"/>
</svg>
